Coordinates
version=1
nRows=13
nColumns=22
inDegrees=yes

Units are S.I. units (second, meters, Newtons, ...)
If the header above contains a line with 'inDegrees', this indicates whether rotational values are in degrees (yes) or radians (no).

endheader
time	pelvis_tilt	pelvis_list	pelvis_rotation	pelvis_tx	pelvis_ty	pelvis_tz	hip_flexion_r	hip_adduction_r	hip_rotation_r	knee_angle_r	ankle_angle_r	subtalar_angle_r	hip_flexion_l	hip_adduction_l	hip_rotation_l	knee_angle_l	ankle_angle_l	subtalar_angle_l	lumbar_extension	lumbar_bending	lumbar_rotation
      0.01000000	      2.24611447	     -3.39052817	     -8.83423787	     -1.76458323	      1.02851448	     -0.37376635	      3.05212851	      4.05303940	     -3.74740777	    -16.10506993	      9.98828785	     -2.40708135	      1.51035683	     -1.87480627	     -8.25138878	    -13.17298291	     10.28298135	     -3.79386167	    -12.91055032	      2.22143089	      3.68612846
      0.02000000	      2.24212968	     -3.39293805	     -8.84277643	     -1.76454527	      1.02851150	     -0.37378216	      3.05293559	      4.05385167	     -3.74922300	    -16.10204291	      9.98775039	     -2.40701010	      1.51135776	     -1.87536472	     -8.25075941	    -13.17306417	     10.28353473	     -3.79471538	    -12.91561751	      2.22079495	      3.68287747
      0.03000000	      2.23720475	     -3.39606702	     -8.85496940	     -1.76449664	      1.02850603	     -0.37379255	      3.05404563	      4.05517783	     -3.75169560	    -16.09878901	      9.98685987	     -2.40663299	      1.51238122	     -1.87713797	     -8.25071148	    -13.17432195	     10.28433080	     -3.79557387	    -12.92048201	      2.21917943	      3.67746000
      0.04000000	      2.23112410	     -3.39956910	     -8.86905445	     -1.76444356	      1.02849923	     -0.37380322	      3.05598115	      4.05695097	     -3.75438227	    -16.09517908	      9.98553059	     -2.40589651	      1.51427973	     -1.87926702	     -8.25187960	    -13.17606812	     10.28552226	     -3.79645576	    -12.92622673	      2.21770022	      3.67056372
      0.05000000	      2.20513983	     -3.41836889	     -8.88709154	     -1.76439450	      1.02846075	     -0.37380444	      3.07646475	      4.07981798	     -3.74511182	    -16.08980406	      9.95624134	     -2.38510394	      1.55230251	     -1.90755064	     -8.29869364	    -13.21277366	     10.31310730	     -3.81278031	    -12.91234795	      2.23817136	      3.65853361
      0.06000000	      2.19782954	     -3.42091170	     -8.90159783	     -1.76433927	      1.02845094	     -0.37381872	      3.07981563	      4.08059913	     -3.74745154	    -16.08660040	      9.95656153	     -2.38432450	      1.55472546	     -1.90825534	     -8.29754958	    -13.21278348	     10.31365361	     -3.81291275	    -12.91992370	      2.23626705	      3.65329368
      0.07000000	      2.19031069	     -3.42338654	     -8.91714728	     -1.76427996	      1.02843937	     -0.37383164	      3.08376442	      4.08133140	     -3.74896588	    -16.08419145	      9.95624491	     -2.38305698	      1.55731900	     -1.90907277	     -8.29814792	    -13.21439370	     10.31471130	     -3.81310701	    -12.92665695	      2.23527375	      3.64658710
      0.08000000	      2.16905808	     -3.42759100	     -8.93808736	     -1.76424145	      1.02840004	     -0.37383534	      3.11223573	      4.08816039	     -3.72584588	    -16.10050797	      9.94605802	     -2.36582417	      1.58373617	     -1.91847642	     -8.33937750	    -13.23197148	     10.33122527	     -3.81593870	    -12.92032909	      2.24121336	      3.61974962
      0.09000000	      2.16148077	     -3.42892756	     -8.95332855	     -1.76417831	      1.02838613	     -0.37384867	      3.11491495	      4.08756976	     -3.72801863	    -16.09574645	      9.94675721	     -2.36428061	      1.58740225	     -1.91793479	     -8.33836904	    -13.23561758	     10.33213141	     -3.81589046	    -12.92533478	      2.24118143	      3.61902302
      0.10000000	      2.15400612	     -3.42977467	     -8.96777939	     -1.76411788	      1.02837144	     -0.37386218	      3.11867271	      4.08668524	     -3.72775266	    -16.09299214	      9.94713579	     -2.36242144	      1.59135473	     -1.91714210	     -8.33998224	    -13.23919714	     10.33391398	     -3.81592467	    -12.93048323	      2.24237120	      3.61623030
      0.11000000	      2.10168086	     -3.42672203	     -9.01788430	     -1.76408871	      1.02827509	     -0.37381277	      3.18460001	      4.09422910	     -3.66302274	    -16.11465284	      9.95472121	     -2.31671588	      1.66132914	     -1.92876176	     -8.42641724	    -13.28280247	     10.37282976	     -3.81592979	    -12.88338056	      2.24130866	      3.64676215
      0.12000000	      2.09558031	     -3.42734413	     -9.03183821	     -1.76402982	      1.02826310	     -0.37382136	      3.18785061	      4.09267000	     -3.66419946	    -16.11365682	      9.95518607	     -2.31606208	      1.66225492	     -1.92748800	     -8.42520395	    -13.28265547	     10.37275499	     -3.81561376	    -12.88919329	      2.24467750	      3.64137710
      0.13000000	      2.08970142	     -3.42773349	     -9.04855943	     -1.76396396	      1.02825171	     -0.37382287	      3.19119293	      4.09083178	     -3.66444061	    -16.11431976	      9.95583602	     -2.31532579	      1.66201601	     -1.92594962	     -8.42620830	    -13.28320859	     10.37353417	     -3.81539985	    -12.89300068	      2.24927503	      3.63469762
